<svg width="18" height="32" viewBox="0 0 18 32" fill="none" xmlns="http://www.w3.org/2000/svg">
<path d="M10.6196 31.9684H5.82064C5.01905 31.9684 4.367 31.2728 4.367 30.4177V18.8705H1.56717C0.765584 18.8705 0.113525 18.1747 0.113525 17.3198V12.3718C0.113525 11.5167 0.765584 10.8211 1.56717 10.8211H4.367V8.34333C4.367 5.88652 5.09016 3.7963 6.45807 2.299C7.83214 0.79487 9.75242 0 12.0113 0L15.6713 0.00634136C16.4715 0.0078048 17.1224 0.703407 17.1224 1.55706V6.15115C17.1224 7.00627 16.4705 7.70187 15.6692 7.70187L13.205 7.70285C12.4535 7.70285 12.2621 7.86357 12.2212 7.91284C12.1537 7.99455 12.0735 8.22552 12.0735 8.86332V10.8209H15.484C15.7408 10.8209 15.9895 10.8884 16.2033 11.0157C16.6644 11.2906 16.9511 11.8104 16.9511 12.3721L16.9493 17.3201C16.9493 18.1747 16.2972 18.8703 15.4957 18.8703H12.0735V30.4177C12.0735 31.2728 11.4212 31.9684 10.6196 31.9684ZM6.12381 30.0943H10.3165V18.0315C10.3165 17.4605 10.752 16.9962 11.287 16.9962H15.1925L15.1941 12.6952H11.2868C10.7518 12.6952 10.3165 12.2308 10.3165 11.6599V8.86332C10.3165 8.13113 10.3862 7.29846 10.9043 6.67261C11.5303 5.91603 12.5168 5.82872 13.2045 5.82872L15.3656 5.82774V1.87998L12.0099 1.87413C8.37972 1.87413 6.12381 4.35312 6.12381 8.34333V11.6599C6.12381 12.2306 5.68849 12.6952 5.15349 12.6952H1.87033V16.9962H5.15349C5.68849 16.9962 6.12381 17.4605 6.12381 18.0315V30.0943ZM15.6678 1.88047H15.6681H15.6678Z" fill="white"/>
</svg>
