<svg width="30" height="32" viewBox="0 0 30 32" fill="none" xmlns="http://www.w3.org/2000/svg">
<path d="M21.5389 0.545334H7.99439C3.58621 0.545334 0 4.36486 0 9.05984V23.4858C0 28.1805 3.58621 32 7.99439 32H21.5391C25.9471 32 29.5333 28.1805 29.5333 23.4858V9.05984C29.5333 4.36486 25.9471 0.545334 21.5389 0.545334V0.545334ZM27.8019 23.4858C27.8019 27.1637 24.9924 30.156 21.5389 30.156H7.99439C4.54089 30.156 1.73137 27.1637 1.73137 23.4858V9.05984C1.73137 5.38166 4.54089 2.38934 7.99439 2.38934H21.5391C24.9924 2.38934 27.8019 5.38166 27.8019 9.05984V23.4858Z" fill="white"/>
<path d="M14.7666 7.67198C10.3138 7.67198 6.69128 11.5301 6.69128 16.2726C6.69128 21.0151 10.3138 24.8733 14.7666 24.8733C19.2194 24.8733 22.8418 21.0151 22.8418 16.2726C22.8418 11.5301 19.2194 7.67198 14.7666 7.67198ZM14.7666 23.0293C11.2687 23.0293 8.42265 19.9983 8.42265 16.2726C8.42265 12.5472 11.2687 9.51599 14.7666 9.51599C18.2647 9.51599 21.1105 12.5472 21.1105 16.2726C21.1105 19.9983 18.2647 23.0293 14.7666 23.0293Z" fill="white"/>
<path d="M23.035 4.61755C21.7191 4.61755 20.6488 5.7577 20.6488 7.15895C20.6488 8.56043 21.7191 9.70058 23.035 9.70058C24.3508 9.70058 25.4213 8.56043 25.4213 7.15895C25.4213 5.75746 24.3508 4.61755 23.035 4.61755ZM23.035 7.85633C22.674 7.85633 22.3802 7.54339 22.3802 7.15895C22.3802 6.77426 22.674 6.46156 23.035 6.46156C23.3961 6.46156 23.69 6.77426 23.69 7.15895C23.69 7.54339 23.3961 7.85633 23.035 7.85633Z" fill="white"/>
</svg>
