<svg width="31" height="24" viewBox="0 0 31 24" fill="none" xmlns="http://www.w3.org/2000/svg">
<path d="M30.3116 0.66962C30.0175 0.303483 29.53 0.167703 29.0965 0.330639L1.56328 10.5022C1.01322 10.7066 0.627122 11.2021 0.555445 11.7956C0.484454 12.3862 0.739103 12.9593 1.2168 13.2892L5.1524 16.0357C5.53369 16.3018 6.02398 16.3304 6.43229 16.1101L14.9694 11.5079L8.31582 16.5868C8.00346 16.8253 7.81683 17.2057 7.81683 17.6042V22.3087C7.81683 22.794 8.0772 23.2386 8.49627 23.4694C8.91603 23.7002 9.42304 23.6773 9.82173 23.4085L12.8118 21.3809L15.7522 23.4305C16.0098 23.611 16.3166 23.7061 16.6263 23.7061C16.7309 23.7061 16.836 23.6951 16.9395 23.673C17.3524 23.585 17.7177 23.3242 17.9419 22.9576L30.3988 1.95906C30.6413 1.55476 30.6065 1.0374 30.3116 0.66962ZM16.5605 21.8168L13.5155 19.6942C13.3037 19.5463 13.0596 19.4723 12.8157 19.4723C12.5771 19.4723 12.3382 19.5432 12.1291 19.6851L9.57647 21.4161V17.8696L21.3253 8.90138C21.85 8.50083 21.9821 7.77184 21.6324 7.20578C21.2825 6.63971 20.582 6.44845 20.0029 6.76075L5.88727 14.3703L2.55851 12.0473L27.9128 2.6808L16.5605 21.8168Z" fill="white"/>
</svg>
