<svg width="31" height="32" viewBox="0 0 31 32" fill="none" xmlns="http://www.w3.org/2000/svg">
<path d="M25.9083 4.52903C23.2031 1.64782 19.6072 0.0613098 15.7813 0.0613098C15.781 0.0613098 15.7801 0.0613098 15.7799 0.0613098C13.8877 0.0615498 12.0436 0.451759 10.2994 1.22138C8.55499 1.991 6.99216 3.10379 5.65398 4.52903C2.949 7.41 1.4594 11.2406 1.4594 15.315C1.4594 17.7448 2.00986 20.1595 3.05287 22.3109L0.645536 29.6356C0.475869 30.1523 0.595965 30.7138 0.959633 31.1009C1.21402 31.3721 1.54885 31.5161 1.89314 31.5161C2.04073 31.5161 2.18989 31.4897 2.33545 31.4354L9.2127 28.8717C11.2327 29.9826 13.4999 30.5689 15.7813 30.5689C19.6068 30.5689 23.2031 28.9821 25.9083 26.1011C28.6133 23.2202 30.1031 19.3896 30.1031 15.3152C30.1031 11.2406 28.6135 7.41 25.9083 4.52903ZM24.6835 24.7966C22.3057 27.3294 19.144 28.7239 15.7813 28.7239C13.7241 28.7239 11.6804 28.182 9.87109 27.1563C9.54302 26.9706 9.15525 26.9387 8.80712 27.0685L2.55896 29.3975L4.74593 22.7429C4.86783 22.3716 4.83764 21.9586 4.66324 21.6094C3.70044 19.6829 3.19144 17.5062 3.19144 15.315C3.19144 11.7335 4.50101 8.36609 6.87882 5.83357C9.25642 3.30129 12.4177 1.90652 15.7801 1.90604H15.7813C19.1442 1.90604 22.3057 3.30081 24.6835 5.83357C27.0615 8.36609 28.3711 11.7333 28.3711 15.315C28.3711 18.8967 27.0615 22.2641 24.6835 24.7966Z" fill="white"/>
<path d="M21.1038 16.6776C20.445 15.9759 19.3729 15.9759 18.7141 16.6776L17.9935 17.4451C16.2042 16.4067 14.7563 14.8646 13.7811 12.9589L14.5017 12.1914C15.1607 11.4897 15.1607 10.3479 14.5017 9.64619L12.5599 7.57804C11.901 6.87633 10.8289 6.87633 10.1701 7.57804L8.61673 9.23246C7.72694 10.1801 7.68255 11.8094 8.49168 13.8202C9.19423 15.566 10.4799 17.4849 12.1119 19.2231C13.7439 20.9613 15.5456 22.3306 17.1848 23.0789C18.0818 23.4883 18.8977 23.6925 19.6027 23.6925C20.3817 23.6925 21.0252 23.4432 21.4923 22.9457L23.0456 21.291V21.2913C23.3649 20.9512 23.5407 20.4993 23.5407 20.0186C23.5407 19.5377 23.3649 19.0858 23.0456 18.746L21.1038 16.6776ZM20.2674 21.6411C20.0135 21.9116 19.2325 22.0064 17.8673 21.3834C16.4257 20.7254 14.8167 19.4948 13.3368 17.9186C11.8569 16.3424 10.7016 14.6289 10.0838 13.0935C9.49864 11.6395 9.58764 10.8075 9.84158 10.537L11.3652 8.91425L13.2471 10.9188L12.3451 11.8797C11.9373 12.3141 11.8388 12.9728 12.1004 13.519C13.2863 15.9956 15.1423 17.9723 17.4676 19.2353C17.9806 19.514 18.5992 19.4093 19.007 18.9747L19.9089 18.0141L21.7911 20.0186L20.2674 21.6411Z" fill="white"/>
</svg>
